<svg width="87" height="24" viewBox="0 0 87 24" fill="none" xmlns="http://www.w3.org/2000/svg">
<path fill-rule="evenodd" clip-rule="evenodd" d="M85.1741 19.0286C84.7684 19.0857 84.3281 19.1143 83.8532 19.1143C82.8638 19.1143 82.1514 18.9571 81.7161 18.6429C81.2807 18.3286 81.063 17.7238 81.063 16.8286V0.257143C81.2807 0.2 81.5924 0.142857 81.998 0.0857143C82.4037 0.0285714 82.844 0 83.3189 0C84.3083 0 85.0207 0.157143 85.4561 0.471429C85.8914 0.785714 86.1091 1.39048 86.1091 2.28571V18.8571C85.8914 18.9143 85.5797 18.9714 85.1741 19.0286ZM66.3851 18.6283C65.8212 19.0855 64.8268 19.3141 63.402 19.3141C61.6607 19.3141 60.32 18.9331 59.3801 18.1712C58.4401 17.4093 57.9701 16.1712 57.9701 14.4569V1.77121C58.1878 1.71406 58.4995 1.65216 58.9051 1.58549C59.3108 1.51882 59.7412 1.48549 60.1963 1.48549C61.166 1.48549 61.8684 1.6474 62.3038 1.9712C62.7391 2.29501 62.9568 2.89501 62.9568 3.7712V5.31406H66.8452C66.9639 5.52359 67.0777 5.78549 67.1866 6.09978C67.2954 6.41406 67.3498 6.76168 67.3498 7.14263C67.3498 7.8093 67.1965 8.29025 66.8897 8.58549C66.583 8.88073 66.1724 9.02835 65.6579 9.02835H62.9568V14.1141C62.9568 14.6093 63.1201 14.9617 63.4466 15.1712C63.7731 15.3807 64.2332 15.4855 64.8268 15.4855C65.1236 15.4855 65.4303 15.4617 65.747 15.4141C66.0636 15.3664 66.3406 15.3045 66.5781 15.2283C66.7562 15.4379 66.9095 15.6712 67.0381 15.9283C67.1668 16.1855 67.2311 16.495 67.2311 16.8569C67.2311 17.5807 66.9491 18.1712 66.3851 18.6283ZM31.6417 19.1142C32.1166 19.1142 32.5569 19.0856 32.9626 19.0285C33.3682 18.9713 33.6799 18.9142 33.8976 18.857V9.0856C34.3131 8.85703 34.793 8.6856 35.3372 8.57132C35.8814 8.45703 36.4107 8.39989 36.9252 8.39989C37.6376 8.39989 38.1818 8.43798 38.5577 8.51417C38.6963 8.30465 38.815 8.05227 38.9139 7.75703C39.0129 7.46179 39.0623 7.14275 39.0623 6.79989C39.0623 5.33322 37.9839 4.59989 35.827 4.59989C34.8177 4.59989 33.8531 4.70465 32.9329 4.91417C32.0127 5.1237 31.2064 5.42846 30.5138 5.82846C29.9993 6.13322 29.5936 6.49036 29.2968 6.89989C29 7.30941 28.8516 7.79036 28.8516 8.34274V16.8285C28.8516 17.7237 29.0692 18.3285 29.5046 18.6427C29.9399 18.957 30.6523 19.1142 31.6417 19.1142ZM48.1748 19.3431C49.3027 19.3431 50.3465 19.2336 51.3063 19.0145C52.266 18.7955 53.0922 18.4764 53.7848 18.0574C54.6159 17.5812 55.0314 16.8669 55.0314 15.9145V7.08594C55.0314 6.1907 54.8138 5.58594 54.3784 5.27165C53.9431 4.95737 53.2307 4.80022 52.2413 4.80022C51.7664 4.80022 51.3261 4.82879 50.9204 4.88594C50.5147 4.94308 50.2031 5.00022 49.9854 5.05737V15.2002C49.8271 15.2764 49.6045 15.3526 49.3175 15.4288C49.0306 15.505 48.6596 15.5431 48.2045 15.5431C47.4525 15.5431 46.8786 15.3764 46.4829 15.0431C46.0871 14.7097 45.8892 14.1526 45.8892 13.3716V7.08594C45.8892 6.1907 45.6715 5.58594 45.2362 5.27165C44.8009 4.95737 44.0885 4.80022 43.0991 4.80022C42.6241 4.80022 42.1838 4.82879 41.7782 4.88594C41.3725 4.94308 41.0609 5.00022 40.8432 5.05737V13.3716C40.8432 14.4383 41.0213 15.3478 41.3775 16.1002C41.7337 16.8526 42.2383 17.4669 42.8913 17.9431C43.5443 18.4193 44.321 18.7716 45.2214 19.0002C46.1217 19.2288 47.1062 19.3431 48.1748 19.3431ZM74.8298 19.3141C76.2545 19.3141 77.2489 19.0855 77.8129 18.6283C78.3768 18.1712 78.6588 17.5807 78.6588 16.8569C78.6588 16.495 78.5945 16.1855 78.4659 15.9283C78.3373 15.6712 78.1839 15.4379 78.0058 15.2283C77.7683 15.3045 77.4913 15.3664 77.1747 15.4141C76.8581 15.4617 76.5514 15.4855 76.2545 15.4855C75.6609 15.4855 75.2008 15.3807 74.8743 15.1712C74.5478 14.9617 74.3845 14.6093 74.3845 14.1141V9.02835H77.0856C77.6001 9.02835 78.0108 8.88073 78.3175 8.58549C78.6242 8.29025 78.7776 7.8093 78.7776 7.14263C78.7776 6.76168 78.7231 6.41406 78.6143 6.09978C78.5055 5.78549 78.3917 5.52359 78.273 5.31406H74.3845V3.7712C74.3845 2.89501 74.1669 2.29501 73.7315 1.9712C73.2962 1.6474 72.5937 1.48549 71.6241 1.48549C71.1689 1.48549 70.7385 1.51882 70.3329 1.58549C69.9272 1.65216 69.6155 1.71406 69.3979 1.77121V14.4569C69.3979 16.1712 69.8678 17.4093 70.8078 18.1712C71.7477 18.9331 73.0884 19.3141 74.8298 19.3141Z" fill="#160647"/>
<rect x="7.12378" y="1.74268" width="15.4349" height="14.8571" rx="2.28571" fill="#FFBF49"/>
<ellipse cx="8.43479" cy="15.5998" rx="8.43479" ry="7.85714" fill="#4F16EE"/>
</svg>
