<svg width="28" height="29" viewBox="0 0 28 29" fill="none" xmlns="http://www.w3.org/2000/svg">
<g clip-path="url(#clip0_389_2905)">
<path fill-rule="evenodd" clip-rule="evenodd" d="M0 4.43066C0 2.01442 1.95875 0.0556641 4.375 0.0556641H23.625C26.0412 0.0556641 28 2.01442 28 4.43066V23.6807C28 26.0969 26.0412 28.0557 23.625 28.0557H4.375C1.95875 28.0557 0 26.0969 0 23.6807V4.43066ZM7.175 11.6932V21.0557H10.15V11.6932H7.175ZM7 8.71817C7 9.68066 7.7 10.3807 8.6625 10.3807C9.625 10.3807 10.325 9.68066 10.325 8.71817C10.325 7.75567 9.625 7.05566 8.6625 7.05566C7.7875 7.05566 7 7.75567 7 8.71817ZM18.025 21.0557H20.825V15.2807C20.825 12.3932 19.075 11.4307 17.4125 11.4307C15.925 11.4307 14.875 12.3932 14.6125 13.0057V11.6932H11.8125V21.0557H14.7875V16.0682C14.7875 14.7557 15.6625 14.0557 16.5375 14.0557C17.4125 14.0557 18.025 14.4932 18.025 15.9807V21.0557Z" fill="#211A37"/>
</g>
<defs>
<clipPath id="clip0_389_2905">
<rect y="0.0556641" width="28" height="28" rx="14" fill="white"/>
</clipPath>
</defs>
</svg>
