<svg width="28" height="29" viewBox="0 0 28 29" fill="none" xmlns="http://www.w3.org/2000/svg">
<g clip-path="url(#clip0_389_2907)">
<path d="M16.275 14.0557L12.6 11.9557V16.1557L16.275 14.0557Z" fill="#211A37"/>
<path fill-rule="evenodd" clip-rule="evenodd" d="M0 4.43066C0 2.01442 1.95875 0.0556641 4.375 0.0556641H23.625C26.0412 0.0556641 28 2.01442 28 4.43066V23.6807C28 26.0969 26.0412 28.0557 23.625 28.0557H4.375C1.95875 28.0557 0 26.0969 0 23.6807V4.43066ZM19.425 9.41817C20.0375 9.59317 20.475 10.0307 20.65 10.6432C21 11.7807 21 14.0557 21 14.0557C21 14.0557 21 16.3307 20.7375 17.4682C20.5625 18.0807 20.125 18.5182 19.5125 18.6932C18.375 18.9557 14 18.9557 14 18.9557C14 18.9557 9.5375 18.9557 8.4875 18.6932C7.875 18.5182 7.4375 18.0807 7.2625 17.4682C7 16.3307 7 14.0557 7 14.0557C7 14.0557 7 11.7807 7.175 10.6432C7.35 10.0307 7.78751 9.59317 8.40001 9.41817C9.53751 9.15567 13.9125 9.15567 13.9125 9.15567C13.9125 9.15567 18.375 9.15567 19.425 9.41817Z" fill="#211A37"/>
</g>
<defs>
<clipPath id="clip0_389_2907">
<rect y="0.0556641" width="28" height="28" rx="14" fill="white"/>
</clipPath>
</defs>
</svg>
